<?xml version="1.0" encoding="utf-8"?>
<!-- Svg Vector Icons : http://www.onlinewebfonts.com/icon -->
<!DOCTYPE svg PUBLIC "-//W3C//DTD SVG 1.1//EN" "http://www.w3.org/Graphics/SVG/1.1/DTD/svg11.dtd">
<svg version="1.1" xmlns="http://www.w3.org/2000/svg" xmlns:xlink="http://www.w3.org/1999/xlink" x="0px" y="0px" viewBox="0 0 1000 1000" enable-background="new 0 0 1000 1000" xml:space="preserve">
<metadata> Svg Vector Icons : http://www.onlinewebfonts.com/icon </metadata>
<g><g transform="translate(0.000000,511.000000) scale(0.100000,-0.100000)"><path d="M4869.6,4994.6C3798,4891.8,2793.6,4286.8,2182.7,3377.4c-462.6-688-676.2-1484.8-612.9-2277.6l23.7-288.7L1067.6-132c-290.6-518-523.9-949-518-954.9c7.9-5.9,268.9-85,581.3-174l569.4-162.1l5.9-972.7l4-970.7H2501h790.8v-711.7V-4790H3450h158.2v869.9v869.9h-790.8h-790.8v929.2v927.2l-73.2,21.8c-458.7,126.5-945,276.8-941.1,292.6c2,9.9,207.6,383.6,456.7,828.4l454.7,810.6L1894,975.2c-37.6,284.7-23.7,713.7,33.6,1006.3c389.5,1979.1,2374.5,3163.3,4290.3,2556.4c340.1-106.8,806.7-359.8,1047.9-567.4l69.2-59.3l-268.9-268.9l-266.9-268.9l-98.9,59.3c-176,106.8-330.2,148.3-561.5,148.3c-162.1,0-235.3-9.9-330.2-43.5l-120.6-43.5l-120.6,81.1c-389.5,259-852.1,219.5-1190.2-104.8l-100.8-96.9l-122.6,29.7c-320.3,81.1-632.7-11.9-883.8-262.9c-177.9-177.9-294.6-436.9-294.6-652.4c0-49.4-15.8-65.2-112.7-112.7c-241.2-122.6-456.7-419.1-504.2-694c-29.7-181.9,2-365.8,100.8-573.4c67.2-144.3,71.2-160.1,53.4-259c-23.7-140.4,13.8-344,92.9-504.2c75.1-150.3,282.7-363.8,423.1-436.9c219.4-110.7,409.2-134.4,640.6-77.1c124.6,29.6,138.4,29.6,172,0c59.3-55.4,286.7-150.3,409.3-174c158.2-29.7,338.1-9.9,494.3,51.4l130.5,53.4l43.5-57.3c205.6-266.9,581.3-423.1,887.7-365.8c191.8,35.6,397.4,146.3,541.7,292.6L6471-242.7l134.4-51.4c350-130.5,709.8-49.4,982.6,223.4c243.2,243.2,340.1,571.4,261,879.8l-31.6,118.6l61.3,94.9c229.3,357.9,201.7,782.9-73.2,1121l-89,108.7l243.2,245.2c134.5,134.4,249.1,245.2,255.1,245.2c19.8,0,152.2-373.7,197.7-553.6c75.1-294.6,98.9-549.6,98.9-1107.2c0-288.7-9.9-603-19.8-701.9c-65.2-557.5-259-1134.8-533.8-1581.7c-239.2-391.5-620.8-808.6-984.6-1077.5l-201.7-148.3v-1180.3V-4790h158.2h158.2v1103.2v1101.2l142.4,108.7c185.8,142.4,510.1,462.6,668.2,662.3c466.6,589.2,765.1,1271.3,883.8,2014.6c51.4,326.2,51.4,1431.4,0,1741.8c-47.5,278.8-148.3,624.8-249.1,860l-81,185.8l435,436.9c381.6,385.5,440.9,452.8,498.2,575.3c55.4,118.6,65.2,158.2,65.2,294.6c0,140.4-7.9,174-63.3,288.7c-77.1,158.2-219.5,296.6-377.6,369.7c-92.9,43.5-140.4,53.4-270.9,53.4c-136.4,0-176-9.9-294.6-65.2c-118.6-55.4-187.8-114.7-506.1-429c-201.7-201.7-377.6-365.8-389.5-365.8c-9.9,0-35.6,19.8-57.3,41.5c-69.2,77.1-504.2,353.9-707.8,452.8C6174.4,4933.3,5508.2,5055.9,4869.6,4994.6z M8972,4640.7c106.8-73.2,156.2-160.2,166.1-302.5c13.8-154.2-17.8-227.4-142.4-349.9l-89-89L8626,4182l-282.7,280.7l89,91c120.6,124.6,179.9,148.3,340.1,140.4C8871.2,4688.2,8924.6,4674.3,8972,4640.7z M8402.6,3948.7l276.8-276.8l-85-83l-83-85l-280.8,280.8l-280.7,282.7l77.1,79.1c41.5,43.5,83,79.1,89,79.1S8250.4,4101,8402.6,3948.7z M7809.5,3751l79.1-79.1L6815,2598.4L5743.4,1526.8l-83,85l-85,83L6643,2762.5c587.2,587.2,1071.6,1067.6,1077.5,1067.6C7726.5,3830.1,7768,3794.5,7809.5,3751z M5308.5,3377.4c49.4-25.7,138.4-98.9,199.7-164.1l110.7-118.6l96.9,59.3c225.4,138.4,522,160.2,749.3,55.4l116.7-53.4l-616.9-616.8L5348,1922.2l-98.8,98.9l-98.9,98.9l-114.7-114.7l-112.7-112.7l707.8-705.8l705.8-707.8l112.7,112.7l114.7,114.7l-98.9,98.9l-98.8,98.9l563.5,563.5l561.5,563.5l57.3-55.4c31.6-29.7,81.1-96.9,108.7-152.2c47.5-87,53.4-120.6,53.4-286.7c0-217.5-31.6-296.6-181.9-456.7l-89-94.9l57.4-114.7c47.4-100.8,55.4-136.4,55.4-292.6s-7.9-191.8-57.3-292.6c-106.7-221.4-338.1-344-607-326.2c-164.1,11.9-266.9,61.3-425.1,203.6l-122.6,106.8l-63.3-172c-114.7-302.5-322.3-458.7-610.9-458.7c-61.3,0-144.3,9.9-183.9,19.8c-104.8,29.6-253.1,136.4-318.3,231.3l-57.3,81l49.4,67.2c85,114.7,152.2,266.9,176,411.2c79.1,456.7-249.1,933.2-725.6,1057.7c-207.6,53.4-207.6,53.4-207.6-126.5v-154.2l102.8-11.9c300.5-35.6,504.2-261,525.9-579.3c13.9-215.5-31.6-348-168-478.4C4727.2,24.2,4614.5-25.2,4432.6-39.1c-195.7-13.8-330.2,37.6-472.5,179.9l-104.8,106.8l-118.6-63.3c-106.8-55.4-136.4-61.3-296.6-61.3c-146.3,0-193.8,9.9-270.9,45.5C2898.4,303,2764,609.4,2845,911.9l35.6,126.5l-89,118.6c-106.8,146.3-142.4,274.8-124.6,444.8c29.7,263,185.8,456.7,433,529.9c241.2,75.1,460.7,27.7,630.7-136.4l73.1-69.2l75.1,51.4c41.5,29.7,96.9,71.2,124.6,92.9l49.4,39.5l-112.7,108.7c-138.4,130.5-318.3,217.5-508.1,251.1l-144.3,23.7l11.9,89c27.7,203.6,160.1,389.5,344,480.4c77.1,37.6,124.6,45.5,270.9,45.5c156.2-2,191.8-7.9,286.7-57.3c59.3-29.7,136.4-75.1,172-102.8c79.1-59.3,162.1-227.4,177.9-359.8l11.9-102.8h154.2c177.9,0,174-5.9,134.4,181.9c-29.7,140.4-138.4,344-239.2,448.8l-85,87l85,75.1c130.5,114.7,259,158.2,448.8,150.3C5176,3422.8,5243.2,3409,5308.5,3377.4z M8204.9,3355.6l79.1-79.1L7210.4,2203L6138.9,1131.4l-83,85l-85,83l1067.6,1067.6c587.2,587.2,1071.6,1067.6,1077.5,1067.6S8163.4,3399.1,8204.9,3355.6z"/></g></g>
</svg>