<?xml version="1.0" encoding="utf-8"?>
<!-- Svg Vector Icons : http://www.onlinewebfonts.com/icon -->
<!DOCTYPE svg PUBLIC "-//W3C//DTD SVG 1.1//EN" "http://www.w3.org/Graphics/SVG/1.1/DTD/svg11.dtd">
<svg version="1.1" xmlns="http://www.w3.org/2000/svg" xmlns:xlink="http://www.w3.org/1999/xlink" x="0px" y="0px" viewBox="0 0 1000 1000" enable-background="new 0 0 1000 1000" xml:space="preserve">
<metadata> Svg Vector Icons : http://www.onlinewebfonts.com/icon </metadata>
<g><g transform="translate(0.000000,512.000000) scale(0.100000,-0.100000)"><path d="M4654.8,5015.8c-36.4-3.8-149.6-17.3-249.3-28.8c-838.1-95.9-1747.1-479.5-2445.2-1033.7c-728.8-581.1-1329-1436.4-1618.6-2311C165.2,1105.4,101.9,704.6,100,117.8c0-537,53.7-911,193.7-1375.1c335.6-1108.5,1047.1-2065.5,2017.5-2709.9c640.6-427.7,1313.7-678.9,2103.8-790.1c222.5-30.7,947.4-30.7,1169.9,0c790.1,111.2,1463.3,362.5,2103.8,790.1c970.4,644.4,1681.9,1601.4,2017.5,2709.9c140,464.1,193.7,838.1,193.7,1375.1c0,537-53.7,911-193.7,1375.1c-335.6,1108.5-1047.1,2065.5-2017.5,2709.9c-632.9,421.9-1307.9,677-2075.1,786.3C5464.1,5010.1,4771.8,5029.3,4654.8,5015.8z M5632.9,4536.4c1373.1-199.5,2512.3-955.1,3204.7-2119.2c418.1-705.8,617.5-1447.9,617.5-2299.5c0-537-59.4-924.4-220.6-1417.2C8757-2774.3,7520-3898.1,6004.9-4233.7c-636.7-141.9-1373.2-141.9-2002.2-1.9c-747.9,166.8-1415.3,510.1-2004.1,1029.9c-491,433.4-912.9,1049-1154.5,1676.2C343.6-233.2,466.3,1260.8,1164.4,2424.9C1906.6,3660,3174.2,4444.3,4626,4567.1C4879.2,4588.2,5379.7,4572.8,5632.9,4536.4z"/><path d="M2719.7,2992.6c-563.8-109.3-1052.9-556.2-1229.3-1120c-57.5-182.2-72.9-506.3-32.6-692.3c69-318.3,232.1-607.9,471.8-838.1c569.6-544.7,1363.6-592.6,1990.7-120.8c276.2,209,492.9,531.2,583,870.7c53.7,195.6,57.5,515.9,9.6,703.8c-151.5,586.8-644.4,1068.2-1217.8,1189C3145.5,3015.6,2857.8,3019.4,2719.7,2992.6z M3245.2,2543.8c408.5-86.3,719.2-383.6,822.7-788.2c38.4-151.5,40.3-444.9,1.9-592.6c-99.7-389.3-397-686.6-786.3-786.3c-143.8-36.4-423.8-36.4-583,0c-368.2,88.2-677,381.6-774.8,738.4c-17.3,57.5-34.5,140-42.2,182.2l-11.5,76.7l69-80.5c84.4-99.7,239.7-201.4,370.1-245.5c163-53.7,400.8-34.5,563.8,42.2c485.2,228.2,600.3,841.9,232,1235.1c-92.1,97.8-212.9,178.3-304.9,201.4l-55.6,15.3l47.9,13.4C2877,2578.3,3105.2,2572.6,3245.2,2543.8z"/><path d="M6658.9,2975.3c-444.9-113.2-836.2-431.5-1045.2-853.4c-122.7-249.3-161.1-404.7-159.2-671.2c0-385.5,140-734.5,416.2-1039.5c172.6-189.9,473.7-381.6,719.2-454.5c797.8-235.9,1657,255.1,1923.6,1100.8c57.5,187.9,63.3,573.4,9.6,767.1c-141.9,523.6-571.5,966.6-1097,1131.5C7228.5,3019.4,6867.9,3027.1,6658.9,2975.3z M7266.9,2543.8c425.8-90.1,740.3-408.5,828.5-838.1c126.6-617.5-216.7-1190.9-795.9-1329c-159.2-36.4-439.2-36.4-583,0c-389.3,99.7-698.1,406.6-786.3,778.6c-49.9,211-42.2,220.5,71,101.6c61.4-65.2,145.8-128.5,224.4-166.8c118.9-57.5,138.1-61.4,337.5-61.4c187.9,0,222.5,5.8,320.3,51.8c391.2,182.2,565.8,652.1,383.6,1037.5c-74.8,161.1-214.8,304.9-370.1,377.8c-95.9,46-109.3,55.6-71,63.3C6923.6,2578.3,7146,2570.6,7266.9,2543.8z"/></g></g>
</svg>